<svg xmlns="http://www.w3.org/2000/svg" xmlns:xlink="http://www.w3.org/1999/xlink" version="1.1" x="0px" y="0px" viewBox="0 0 100 125" style="enable-background:new 0 0 100 100;" xml:space="preserve"><path d="M78.1,39.7c0.3-1.7,0.5-3.4,0.5-5.1c0-15-12.2-27.1-27.1-27.1S24.3,19.6,24.3,34.6c0,1.6,0.1,3.1,0.4,4.7  c-11,3.5-19,13.8-19,25.9c0,15,12.2,27.1,27.1,27.1c6.8,0,13.1-2.5,17.9-6.7c4.8,4.2,11,6.7,17.9,6.7c15,0,27.1-12.2,27.1-27.1  C95.7,53.5,88.4,43.6,78.1,39.7z M54.1,76.6L50.3,81c-0.3-0.4-0.6-0.7-0.9-1.1l6.6-7.5C55.5,73.9,54.9,75.3,54.1,76.6z M56.6,69.9  l-8,9c-0.3-0.4-0.6-0.8-0.8-1.3L57,67.2C56.9,68.1,56.8,69,56.6,69.9z M28.2,41.3c0.4-0.1,0.7-0.1,1.1-0.2l-0.8,0.9  C28.4,41.8,28.3,41.6,28.2,41.3z M31,40.9c0.6-0.1,1.2-0.1,1.9-0.1c0,0,0.1,0,0.1,0l-3.5,4c-0.2-0.5-0.4-1-0.6-1.5L31,40.9z   M34.5,40.9c0.6,0,1.2,0.1,1.8,0.2l-5.5,6.2c-0.3-0.4-0.5-0.9-0.8-1.3L34.5,40.9z M37.7,41.3c0.5,0.1,1.1,0.2,1.6,0.4l-6.9,7.8  c-0.3-0.4-0.6-0.8-0.9-1.2L37.7,41.3z M40.5,42c0.5,0.2,1,0.3,1.5,0.5l-7.9,8.9c-0.3-0.3-0.7-0.7-1-1.1L40.5,42z M43.1,43.1  c0.5,0.2,0.9,0.4,1.3,0.7l-8.4,9.5c-0.4-0.3-0.7-0.6-1.1-1L43.1,43.1z M45.5,44.3c0.4,0.3,0.8,0.5,1.2,0.8l-8.5,9.7  c-0.4-0.3-0.8-0.5-1.2-0.8L45.5,44.3z M47.6,45.8c0.3,0.2,0.6,0.5,1,0.8c-1.1,1.3-2.1,2.6-3,4.1l-4.9,5.6c-0.5-0.3-1-0.5-1.5-0.8  L47.6,45.8z M57.8,54.4L69.6,41c0.6,0,1.2,0.1,1.8,0.2l-13,14.7C58.2,55.4,58,54.9,57.8,54.4z M57.3,53.2c-0.2-0.5-0.5-0.9-0.7-1.4  L66,41.1c0.7-0.1,1.4-0.1,2-0.1L57.3,53.2z M55.9,50.8c-0.3-0.4-0.5-0.8-0.8-1.2l6.7-7.6c0.8-0.2,1.6-0.4,2.5-0.6L55.9,50.8z   M54.4,48.6c-0.3-0.4-0.6-0.8-0.9-1.1l2.7-3c1.1-0.7,2.2-1.2,3.4-1.7L54.4,48.6z M44.7,60.9c0.6,0.2,1.3,0.3,2,0.4L44.3,64  C44.4,62.9,44.5,61.9,44.7,60.9z M44.3,65.7l3.8-4.2c0.6,0.1,1.2,0.1,1.8,0.2l-5.4,6.1C44.4,67.1,44.3,66.4,44.3,65.7z M43.4,54.9  c-0.3,0.7-0.6,1.5-0.8,2.2c-0.3-0.1-0.5-0.2-0.8-0.3L43.4,54.9z M51.4,61.7C51.4,61.7,51.4,61.7,51.4,61.7c0.7,0,1.4,0,2-0.1  L45.1,71c-0.2-0.6-0.3-1.2-0.4-1.8L51.4,61.7z M55.1,61.4c0.5-0.1,1.1-0.1,1.6-0.2c0,0.2,0.1,0.4,0.1,0.5L46,73.9  c-0.2-0.5-0.4-1-0.6-1.6L55.1,61.4z M57,63.3c0.1,0.6,0.1,1.2,0.1,1.8c0,0.1,0,0.2,0,0.3l-9.9,11.1c-0.2-0.5-0.5-0.9-0.7-1.4  L57,63.3z M72.8,41.4c0.5,0.1,1.1,0.2,1.6,0.4L61,56.9c-0.7,0.3-1.4,0.6-2.1,0.8c0-0.2-0.1-0.3-0.1-0.5L72.8,41.4z M73.4,44.6  c-2,4.5-5.4,8.3-9.5,10.8L73.4,44.6z M51.4,10.4c13.3,0,24.2,10.9,24.2,24.2c0,1.4-0.1,2.9-0.4,4.2c-2.1-0.5-4.4-0.8-6.7-0.8  c-6.8,0-13.1,2.5-17.9,6.7C46,40.5,39.7,38,32.9,38c-1.8,0-3.6,0.2-5.3,0.5c-0.3-1.3-0.4-2.6-0.4-3.9C27.2,21.2,38.1,10.4,51.4,10.4  z M32.9,89.3c-13.4,0-24.2-10.8-24.2-24.2c0-10.7,7-19.8,16.7-23C27.8,50.4,34,57,41.9,60c-0.3,1.7-0.5,3.4-0.5,5.1  c0,7.1,2.7,13.5,7.2,18.4C44.4,87.1,38.9,89.3,32.9,89.3z M68.6,89.3c-6,0-11.5-2.2-15.7-5.8c4.5-4.8,7.2-11.3,7.2-18.4  c0-1.6-0.1-3.1-0.4-4.7c8.5-2.7,15.1-9.4,17.8-17.9c9,3.5,15.4,12.3,15.4,22.6C92.8,78.5,81.9,89.3,68.6,89.3z"/><text x="0" y="115" fill="#000000" font-size="5px" font-weight="bold" font-family="'Helvetica Neue', Helvetica, Arial-Unicode, Arial, Sans-serif">Created by Sharon Showalter</text><text x="0" y="120" fill="#000000" font-size="5px" font-weight="bold" font-family="'Helvetica Neue', Helvetica, Arial-Unicode, Arial, Sans-serif">from the Noun Project</text></svg>